<?xml version="1.0" encoding="UTF-8" standalone="no"?>
<!-- Created with Inkscape (http://www.inkscape.org/) -->

<svg
   width="51.092712mm"
   height="51.092712mm"
   viewBox="0 0 51.092712 51.092712"
   version="1.1"
   id="svg1"
   inkscape:version="1.4 (86a8ad7, 2024-10-11)"
   sodipodi:docname="agitato.svg"
   xmlns:inkscape="http://www.inkscape.org/namespaces/inkscape"
   xmlns:sodipodi="http://sodipodi.sourceforge.net/DTD/sodipodi-0.dtd"
   xmlns="http://www.w3.org/2000/svg"
   xmlns:svg="http://www.w3.org/2000/svg">
  <sodipodi:namedview
     id="namedview1"
     pagecolor="#ffffff"
     bordercolor="#000000"
     borderopacity="0.25"
     inkscape:showpageshadow="2"
     inkscape:pageopacity="0.0"
     inkscape:pagecheckerboard="0"
     inkscape:deskcolor="#d1d1d1"
     inkscape:document-units="mm"
     inkscape:zoom="2.0888418"
     inkscape:cx="-100.05545"
     inkscape:cy="174.01988"
     inkscape:current-layer="layer1" />
  <defs
     id="defs1" />
  <g
     inkscape:label="Livello 1"
     inkscape:groupmode="layer"
     id="layer1"
     transform="translate(-179.3875,-36.5125)">
    <circle
       style="fill:#e96158;stroke:#000000;stroke-width:1.69333;stroke-linejoin:bevel;fill-opacity:1"
       id="path162"
       cx="204.93385"
       cy="62.058857"
       r="24.699692" />
    <path
       d="m 197.40639,74.219419 c -0.097,-0.09701 -0.17639,-0.429642 -0.17639,-0.739173 0,-0.602389 0.14299,-0.646475 5.15937,-1.590661 7.82655,-1.473117 8.43826,-1.528991 8.54524,-0.780527 0.0959,0.670922 -1.00881,1.057822 -3.78274,1.324825 -1.01864,0.09805 -3.43478,0.579593 -5.36919,1.070098 -3.69278,0.93637 -4.09036,1.001367 -4.37629,0.715438 z m -4.30288,-9.240499 c -1.55793,-1.010178 -2.38604,-3.019875 -1.93483,-4.695535 0.60379,-2.242297 2.0444,-3.350078 4.35661,-3.350078 1.49043,0 2.22853,0.29994 3.2488,1.320219 0.80429,0.804287 0.83716,0.922702 0.83716,3.016257 0,2.031865 -0.0492,2.226195 -0.72761,2.876029 -1.68378,1.612789 -4.0514,1.95404 -5.78013,0.833108 z m 4.07357,-4.394363 c 0.44806,-0.44806 0.39402,-1.276072 -0.12038,-1.844479 -0.58475,-0.646137 -0.93871,-0.610169 -1.6715,0.169848 -0.53939,0.574149 -0.56915,0.710993 -0.24456,1.124479 0.73475,0.935977 1.45582,1.130776 2.03644,0.550152 z m 13.14979,4.479246 c -0.69733,-0.390101 -1.26139,-0.994361 -1.65364,-1.771502 -1.60517,-3.180214 0.34699,-6.358994 3.9052,-6.358994 2.66119,0 4.06153,1.449193 4.08429,4.226802 0.0115,1.399435 -0.10279,1.890283 -0.60344,2.592209 -1.30574,1.830686 -3.7888,2.398771 -5.73241,1.311485 z m 3.68253,-4.322345 c 0.26974,-0.103509 0.41851,-0.485134 0.41851,-1.073546 0,-0.910429 -0.003,-0.912723 -1.12447,-0.831589 -0.94346,0.06826 -1.1384,0.179539 -1.21094,0.691235 -0.15415,1.087401 0.75169,1.661034 1.9169,1.2139 z m -9.01081,-4.205026 c -0.33891,-0.883193 -0.39969,-0.844449 7.18037,-4.576593 1.4552,-0.716491 3.13343,-1.560776 3.72938,-1.876189 1.08035,-0.571784 1.95916,-0.531376 1.95916,0.09008 0,0.441144 -0.77701,1.09621 -1.5875,1.338355 -0.91321,0.272834 -5.33463,2.475563 -5.82084,2.899908 -0.50283,0.438863 -4.6569,2.521312 -5.02951,2.521312 -0.15332,0 -0.34729,-0.178594 -0.43106,-0.396875 z m -4.54899,-0.210846 c -0.15663,-0.188725 -1.66795,-1.283926 -3.3585,-2.433779 -2.8868,-1.963508 -3.83536,-2.862026 -3.43942,-3.257968 0.18324,-0.183234 0.49638,-0.0057 3.22364,1.827501 0.99544,0.669116 2.0367,1.472788 2.31391,1.785938 0.27722,0.313149 0.61603,0.569362 0.75291,0.569362 0.4626,0 1.78577,1.09159 1.78577,1.473225 0,0.472689 -0.89491,0.497696 -1.27831,0.03572 z"
       style="display:inline;fill:#000000"
       id="path1"
       sodipodi:nodetypes="sssssssssscscssssssssscsssssssssssscssssccscssss" />
  </g>
</svg>
