<?xml version="1.0" encoding="UTF-8" standalone="no"?>
<!-- Created with Inkscape (http://www.inkscape.org/) -->

<svg
   width="51.092712mm"
   height="51.092712mm"
   viewBox="0 0 51.092712 51.092712"
   version="1.1"
   id="svg1"
   inkscape:version="1.4 (86a8ad7, 2024-10-11)"
   sodipodi:docname="alienato.svg"
   xmlns:inkscape="http://www.inkscape.org/namespaces/inkscape"
   xmlns:sodipodi="http://sodipodi.sourceforge.net/DTD/sodipodi-0.dtd"
   xmlns="http://www.w3.org/2000/svg"
   xmlns:svg="http://www.w3.org/2000/svg">
  <sodipodi:namedview
     id="namedview1"
     pagecolor="#ffffff"
     bordercolor="#000000"
     borderopacity="0.25"
     inkscape:showpageshadow="2"
     inkscape:pageopacity="0.0"
     inkscape:pagecheckerboard="0"
     inkscape:deskcolor="#d1d1d1"
     inkscape:document-units="mm"
     inkscape:zoom="2.0888418"
     inkscape:cx="91.43823"
     inkscape:cy="97.422407"
     inkscape:current-layer="layer1" />
  <defs
     id="defs1" />
  <g
     inkscape:label="Livello 1"
     inkscape:groupmode="layer"
     id="layer1"
     transform="translate(-179.3875,-36.5125)">
    <circle
       style="fill:#325fac;stroke:#000000;stroke-width:1.69333;stroke-linejoin:bevel;fill-opacity:1"
       id="path162"
       cx="204.93385"
       cy="62.058857"
       r="24.699692" />
    <path
       d="m 223.10095,47.24395 c -43.71345,-10.73145 -43.71345,-10.73145 0,0 z M 210.0129,70.59157 c -0.22226,-0.31733 -0.40411,-0.88724 -0.40411,-1.26647 0,-1.02001 -1.40878,-2.96361 -2.65635,-3.66478 -1.46832,-0.82524 -3.96887,-0.71398 -5.35883,0.23844 -1.11565,0.76445 -2.30357,2.5064 -2.30357,3.37791 0,1.40466 -1.02467,2.17193 -1.56135,1.16913 -0.51554,-0.9633 0.60956,-3.83211 2.00014,-5.09998 1.63702,-1.49257 2.73687,-1.94582 4.71466,-1.9429 1.53953,0.002 2.09378,0.13166 3.23353,0.75493 1.58825,0.86853 2.1869,1.46024 2.96224,2.92788 1.07256,2.03027 0.51724,5.13855 -0.62636,3.50584 z M 190.67539,57.67155 c -0.36231,-0.58622 0.62849,-0.94561 4.24903,-1.54124 2.03729,-0.33517 3.79346,-0.66259 3.9026,-0.72762 0.59456,-0.35424 -0.0924,-1.35108 -2.71198,-3.9354 -2.83887,-2.80066 -3.25757,-3.39065 -2.57969,-3.6351 0.58847,-0.21222 1.60412,0.58696 4.74526,3.73382 2.21093,2.21497 3.13067,3.3249 3.25263,3.92521 0.19974,0.98324 0.19892,0.98365 -3.07042,1.53788 -1.21852,0.20657 -2.92986,0.50018 -3.80299,0.65247 -2.06028,0.35935 -3.7588,0.35508 -3.98444,-0.01 z m 24.48965,-0.24764 c -1.09141,-0.10196 -3.02775,-0.27863 -4.30299,-0.3926 -1.27524,-0.11397 -2.50905,-0.34646 -2.7418,-0.51665 -0.38423,-0.28096 -0.37424,-0.40512 0.1086,-1.34951 0.29248,-0.57205 0.81191,-1.34485 1.15429,-1.71735 0.34239,-0.3725 1.05426,-1.20593 1.58193,-1.85208 0.52767,-0.64615 1.62534,-1.87705 2.43926,-2.73533 1.24477,-1.31261 1.5433,-1.50784 1.8793,-1.22899 0.52438,0.4352 0.37577,0.68403 -2.14641,3.59392 -2.334,2.69279 -2.96517,3.70113 -2.56637,4.09993 0.1449,0.1449 1.98201,0.3966 4.08247,0.55932 2.10046,0.16272 3.96534,0.41145 4.14418,0.55273 0.23202,0.18328 0.2483,0.40051 0.0568,0.75826 -0.28699,0.53625 -0.35112,0.54021 -3.6893,0.22835 z"
       style="display:inline;fill:#000000"
       id="path1"
       sodipodi:nodetypes="ssssscssscscscccscccsscccssscsscssssccc" />
  </g>
</svg>
