<?xml version="1.0" encoding="UTF-8" standalone="no"?>
<!-- Created with Inkscape (http://www.inkscape.org/) -->

<svg
   width="51.092712mm"
   height="51.092712mm"
   viewBox="0 0 51.092712 51.092712"
   version="1.1"
   id="svg1"
   inkscape:version="1.4 (86a8ad7, 2024-10-11)"
   sodipodi:docname="arrabbiato.svg"
   xmlns:inkscape="http://www.inkscape.org/namespaces/inkscape"
   xmlns:sodipodi="http://sodipodi.sourceforge.net/DTD/sodipodi-0.dtd"
   xmlns="http://www.w3.org/2000/svg"
   xmlns:svg="http://www.w3.org/2000/svg">
  <sodipodi:namedview
     id="namedview1"
     pagecolor="#ffffff"
     bordercolor="#000000"
     borderopacity="0.25"
     inkscape:showpageshadow="2"
     inkscape:pageopacity="0.0"
     inkscape:pagecheckerboard="0"
     inkscape:deskcolor="#d1d1d1"
     inkscape:document-units="mm"
     inkscape:zoom="2.0888418"
     inkscape:cx="-100.05545"
     inkscape:cy="174.01988"
     inkscape:current-layer="layer1" />
  <defs
     id="defs1" />
  <g
     inkscape:label="Livello 1"
     inkscape:groupmode="layer"
     id="layer1"
     transform="translate(-179.3875,-36.5125)">
    <circle
       style="fill:#f02528;stroke:#000000;stroke-width:1.69333;stroke-linejoin:bevel;fill-opacity:1"
       id="path162"
       cx="204.93385"
       cy="62.058857"
       r="24.699692" />
    <path
       d="m 199.63938,74.956724 c -1.7193,-0.699498 -2.06788,-0.984972 -2.74469,-2.247749 -1.54177,-2.876612 0.33915,-6.224373 4.31104,-7.673002 2.52318,-0.920255 4.81542,-0.860028 7.07947,0.186008 2.1376,0.987616 2.96841,2.287162 2.81532,4.403676 -0.10151,1.403263 -0.23706,1.701043 -1.38719,3.047284 -0.70108,0.820623 -1.38504,1.492043 -1.51992,1.492043 -0.13487,0 -0.74549,0.249739 -1.35692,0.554975 -1.67245,0.834911 -5.42362,0.958314 -7.19711,0.236765 z m 18.8589,-11.348843 c -0.54167,-0.253055 -1.19651,-0.642894 -1.45521,-0.866309 -0.2587,-0.223415 -1.76392,-1.167591 -3.34493,-2.09817 -3.1173,-1.834826 -4.25957,-2.734622 -4.00154,-3.152118 0.22455,-0.363325 2.06395,-1.283397 3.68838,-1.844936 0.73461,-0.25394 1.87143,-0.707031 2.52627,-1.006869 3.94296,-1.805395 5.55625,-2.180998 5.55625,-1.293599 0,0.620102 -0.83076,1.138297 -3.43958,2.145476 -4.14049,1.5985 -5.28241,2.1223 -5.28715,2.425223 -0.005,0.308733 2.76201,2.16454 4.82256,3.234631 1.68833,0.876789 3.25166,2.252448 3.00791,2.646832 -0.25991,0.42055 -0.88932,0.362812 -2.07296,-0.190161 z M 188.77577,61.17501 c -0.0986,-0.159485 -0.0163,-0.448792 0.18282,-0.642904 0.34932,-0.340532 5.16616,-2.369433 7.15166,-3.012351 1.236,-0.400223 1.50466,-1.039524 0.69776,-1.660411 -0.33452,-0.257406 -0.70234,-0.470658 -0.81737,-0.473894 -0.11503,-0.0032 -0.53175,-0.230119 -0.92604,-0.504186 -0.39429,-0.274066 -1.75112,-1.166167 -3.01519,-1.982447 -2.52447,-1.630202 -2.67262,-1.775511 -2.43675,-2.390166 0.22112,-0.576225 0.71245,-0.527986 1.77798,0.174561 0.49659,0.327422 1.69732,1.071563 2.66827,1.653646 0.97096,0.582084 2.14752,1.322601 2.61459,1.645595 0.46706,0.322993 1.47429,0.959437 2.23827,1.414319 1.70017,1.012292 1.88512,1.841203 0.52917,2.37166 -0.47294,0.185019 -1.8124,0.727879 -2.97656,1.206356 -6.15881,2.531295 -7.28485,2.853528 -7.68861,2.200222 z"
       style="display:inline;fill:#000000"
       id="path1"
       sodipodi:nodetypes="sssscsssssscssssscscscssscscsssscscc" />
  </g>
</svg>
