<?xml version="1.0" encoding="UTF-8" standalone="no"?>
<!-- Created with Inkscape (http://www.inkscape.org/) -->

<svg
   width="51.092712mm"
   height="51.092712mm"
   viewBox="0 0 51.092712 51.092712"
   version="1.1"
   id="svg1"
   xmlns="http://www.w3.org/2000/svg"
   xmlns:svg="http://www.w3.org/2000/svg">
  <defs
     id="defs1" />
  <g
     id="layer1"
     transform="translate(-179.3875,-36.5125)">
    <circle
       style="fill:#f59750;stroke:#000000;stroke-width:1.69333;stroke-linejoin:bevel;fill-opacity:1"
       id="path162"
       cx="204.93385"
       cy="62.058857"
       r="24.699692" />
    <path
       d="m 198.32457,76.187279 c -0.53535,-0.13979 -0.6174,-0.96027 -0.13229,-1.3228 0.1819,-0.13594 1.9976,-0.63939 4.0349,-1.11879 2.03729,-0.47939 4.04935,-0.97806 4.47125,-1.10815 0.4219,-0.13009 1.22557,-0.23653 1.78594,-0.23653 0.94287,0 1.01885,0.056 1.01885,0.75128 0,0.86056 -0.80142,1.36132 -2.19526,1.3717 -0.4661,0.003 -1.3237,0.13045 -1.90578,0.28218 -0.58209,0.15172 -1.47506,0.36616 -1.98438,0.47653 -0.50932,0.11036 -1.16417,0.32462 -1.45521,0.47612 -0.62398,0.32481 -2.97469,0.60166 -3.63802,0.42846 z m 15.97742,-12.87977 c -1.26151,-0.45652 -2.84899,-1.86543 -3.39258,-3.01096 -1.01511,-2.13919 -0.36278,-5.31384 1.44406,-7.02766 0.94597,-0.89728 3.45989,-1.62138 4.7735,-1.37495 1.41266,0.26502 2.72398,1.07978 3.67781,2.28513 0.83492,1.05509 0.86927,1.19135 0.86927,3.44818 0,2.10466 -0.0738,2.46127 -0.70807,3.41966 -0.74582,1.12701 -1.64518,1.73184 -3.39297,2.2818 -1.2904,0.40604 -2.10501,0.40076 -3.27102,-0.0212 z m 3.94987,-6.52622 c 0.79713,-0.42661 0.69588,-1.97453 -0.16609,-2.53932 -0.63013,-0.41287 -0.74193,-0.4136 -1.5875,-0.0104 -0.76639,0.36547 -0.90964,0.57195 -0.90964,1.31118 0,0.48258 0.14288,1.02028 0.3175,1.19491 0.38994,0.38994 1.65467,0.41345 2.34573,0.0436 z m -28.19552,5.5449 c -1.48715,-1.1237 -2.2222,-2.64213 -2.237,-4.62108 -0.0257,-3.43145 2.38072,-5.9416 5.69597,-5.9416 1.80624,0 2.65625,0.33458 3.90503,1.53711 1.46413,1.4099 1.84195,2.28856 1.84195,4.28373 0,1.95719 -0.38781,2.89568 -1.70889,4.13543 -1.33252,1.2505 -1.8452,1.42146 -4.23852,1.41346 -2.03286,-0.007 -2.2807,-0.0682 -3.25854,-0.80705 z m 5.52002,-5.66945 c 0.97829,-0.97829 0.70838,-2.3664 -0.52008,-2.67473 -1.54442,-0.38762 -2.6864,1.13409 -1.83091,2.43973 0.48271,0.7367 1.7251,0.86089 2.35099,0.235 z"
       style="display:inline;fill:#000000"
       id="path1" />
  </g>
</svg>
