<?xml version="1.0" encoding="UTF-8" standalone="no"?>
<!-- Created with Inkscape (http://www.inkscape.org/) -->

<svg
   width="51.092712mm"
   height="51.092712mm"
   viewBox="0 0 51.092712 51.092712"
   version="1.1"
   id="svg1"
   inkscape:version="1.4 (86a8ad7, 2024-10-11)"
   sodipodi:docname="spensierato.svg"
   xmlns:inkscape="http://www.inkscape.org/namespaces/inkscape"
   xmlns:sodipodi="http://sodipodi.sourceforge.net/DTD/sodipodi-0.dtd"
   xmlns="http://www.w3.org/2000/svg"
   xmlns:svg="http://www.w3.org/2000/svg">
  <sodipodi:namedview
     id="namedview1"
     pagecolor="#ffffff"
     bordercolor="#000000"
     borderopacity="0.25"
     inkscape:showpageshadow="2"
     inkscape:pageopacity="0.0"
     inkscape:pagecheckerboard="0"
     inkscape:deskcolor="#d1d1d1"
     inkscape:document-units="mm"
     inkscape:zoom="2.0888418"
     inkscape:cx="91.43823"
     inkscape:cy="97.422407"
     inkscape:current-layer="layer1" />
  <defs
     id="defs1" />
  <g
     inkscape:label="Livello 1"
     inkscape:groupmode="layer"
     id="layer1"
     transform="translate(-179.3875,-36.5125)">
    <circle
       style="fill:#b4d65e;stroke:#000000;stroke-width:1.69333;stroke-linejoin:bevel;fill-opacity:1"
       id="path162"
       cx="204.93385"
       cy="62.058857"
       r="24.699692" />
    <path
       d="m 209.40235,67.756231 c -0.8223,-0.105628 -1.66224,-1.084675 -1.26842,-1.478492 0.15817,-0.158167 0.39585,-0.130633 0.643,0.07449 0.21565,0.178973 0.72672,0.287036 1.1357,0.240141 1.04537,-0.119866 1.13729,-1.058903 0.18962,-1.937168 -0.65155,-0.603836 -0.6886,-0.731629 -0.3796,-1.30901 0.56824,-1.061756 0.18014,-1.564526 -1.0552,-1.366988 -0.93901,0.150155 -1.05393,0.109779 -1.05393,-0.370312 0,-0.655109 1.07696,-1.126724 2.02791,-0.88805 0.85338,0.214183 1.71042,1.589305 1.50374,2.41276 -0.0941,0.374862 0.005,0.794094 0.25284,1.069061 0.5891,0.653756 0.80432,1.772524 0.4635,2.409352 -0.38547,0.720255 -1.54816,1.26124 -2.45916,1.144218 z M 193.90811,55.738563 c -0.43361,-0.433609 -0.39835,-1.273777 0.10469,-2.494459 1.0163,-2.466146 4.20402,-3.708451 6.75539,-2.632681 2.11181,0.890432 4.07975,4.386306 2.4692,4.386306 -0.20689,0 -0.64635,-0.558497 -0.97658,-1.241104 -0.82836,-1.712296 -1.75271,-2.330771 -3.48347,-2.330771 -2.22777,0 -3.7423,1.299777 -3.96667,3.404203 -0.0995,0.932897 -0.48754,1.32353 -0.90256,0.908506 z m 19.26166,-2.960902 c 0,-1.737358 1.34265,-3.572622 3.06587,-4.19074 1.5944,-0.571913 2.10556,-0.580657 3.57785,-0.06121 1.49975,0.529144 2.49857,1.508798 2.98057,2.923389 0.31502,0.924553 0.32382,1.190599 0.047,1.420355 -0.41171,0.341695 -0.78737,-0.05087 -1.03231,-1.078793 -0.21243,-0.891457 -1.78074,-2.086112 -3.13932,-2.391365 -0.92211,-0.207184 -1.22058,-0.144847 -2.28786,0.477842 -1.57282,0.917638 -1.83327,1.274673 -2.04653,2.805481 -0.1378,0.989159 -0.28051,1.256771 -0.67017,1.256771 -0.40855,0 -0.49508,-0.203051 -0.49508,-1.161735 z"
       style="display:inline;fill:#000000"
       id="path1"
       sodipodi:nodetypes="ssssscsssccsssscsscscscssscssssscc" />
  </g>
</svg>
