<?xml version="1.0" encoding="UTF-8" standalone="no"?>
<!-- Created with Inkscape (http://www.inkscape.org/) -->

<svg
   width="51.092712mm"
   height="51.092712mm"
   viewBox="0 0 51.092712 51.092712"
   version="1.1"
   id="svg1"
   inkscape:version="1.4 (86a8ad7, 2024-10-11)"
   sodipodi:docname="allegro.svg"
   xmlns:inkscape="http://www.inkscape.org/namespaces/inkscape"
   xmlns:sodipodi="http://sodipodi.sourceforge.net/DTD/sodipodi-0.dtd"
   xmlns="http://www.w3.org/2000/svg"
   xmlns:svg="http://www.w3.org/2000/svg">
  <sodipodi:namedview
     id="namedview1"
     pagecolor="#ffffff"
     bordercolor="#000000"
     borderopacity="0.25"
     inkscape:showpageshadow="2"
     inkscape:pageopacity="0.0"
     inkscape:pagecheckerboard="0"
     inkscape:deskcolor="#d1d1d1"
     inkscape:document-units="mm"
     inkscape:zoom="2.0888418"
     inkscape:cx="91.43823"
     inkscape:cy="97.422407"
     inkscape:current-layer="layer1" />
  <defs
     id="defs1" />
  <g
     inkscape:label="Livello 1"
     inkscape:groupmode="layer"
     id="layer1"
     transform="translate(-179.3875,-36.5125)">
    <circle
       style="fill:#fbf6bf;stroke:#000000;stroke-width:1.69333;stroke-linejoin:bevel;fill-opacity:1"
       id="path162"
       cx="204.93385"
       cy="62.058857"
       r="24.699692" />
    <path
       d="m 204.77693,72.854086 c -1.61751,-0.75324 -2.92034,-2.18135 -3.30994,-3.62824 -0.39559,-1.4691 -0.25838,-2.23194 0.40145,-2.23194 0.41385,0 0.59909,0.28334 0.85003,1.30014 0.64333,2.60683 2.82709,3.95136 5.46053,3.36202 1.97399,-0.44176 2.91159,-1.54299 3.46256,-4.06685 0.18213,-0.83427 1.18061,-1.04637 1.24555,-0.26458 0.22625,2.72372 -1.11802,4.63411 -4.01605,5.70736 -1.60932,0.59598 -2.51694,0.55654 -4.09413,-0.17791 z m -10.19971,-13.07008 c -0.98556,-0.92861 -1.05928,-1.10238 -1.15046,-2.71197 -0.0582,-1.0265 0.0407,-2.05591 0.24511,-2.55356 0.96061,-2.33828 4.86655,-3.02542 6.71131,-1.18066 1.0611,1.06109 1.35296,1.75142 1.35198,3.19777 -0.002,2.74991 -1.56054,4.23791 -4.44102,4.23962 -1.55972,9.3e-4 -1.72982,-0.0611 -2.71692,-0.9912 z m 4.46372,-4.89479 c -0.0693,-0.71872 -0.19151,-0.85989 -0.74437,-0.85989 -0.55287,0 -0.67507,0.14117 -0.74437,0.85989 -0.0776,0.80448 -0.0296,0.8599 0.74437,0.8599 0.77396,0 0.82193,-0.0554 0.74437,-0.8599 z m 12.92577,2.27101 c -0.35323,-0.35322 -0.16361,-1.98642 0.34678,-2.98687 0.8898,-1.74415 1.89915,-2.2607 4.41743,-2.2607 1.77942,0 2.29497,0.0981 2.91042,0.55349 1.27326,0.94225 1.97312,2.20719 1.88482,3.40665 -0.0989,1.34386 -0.76026,1.44805 -1.13347,0.17856 -0.14364,-0.48861 -0.63604,-1.32204 -1.09422,-1.85208 -0.80363,-0.92967 -0.89562,-0.9637 -2.60481,-0.9637 -1.64883,0 -1.8228,0.0571 -2.50751,0.82346 -0.40468,0.45291 -0.82256,1.28607 -0.92863,1.85148 -0.2215,1.1807 -0.79987,1.74065 -1.29081,1.24971 z"
       style="fill:#000000"
       id="path1"
       sodipodi:nodetypes="ccscssscccccccsccscscsssccssscss" />
  </g>
</svg>
