<?xml version="1.0" encoding="UTF-8" standalone="no"?>
<!-- Created with Inkscape (http://www.inkscape.org/) -->

<svg
   width="51.092712mm"
   height="51.092712mm"
   viewBox="0 0 51.092712 51.092712"
   version="1.1"
   id="svg1"
   inkscape:version="1.4 (86a8ad7, 2024-10-11)"
   sodipodi:docname="compiaciuto.svg"
   xmlns:inkscape="http://www.inkscape.org/namespaces/inkscape"
   xmlns:sodipodi="http://sodipodi.sourceforge.net/DTD/sodipodi-0.dtd"
   xmlns="http://www.w3.org/2000/svg"
   xmlns:svg="http://www.w3.org/2000/svg">
  <sodipodi:namedview
     id="namedview1"
     pagecolor="#ffffff"
     bordercolor="#000000"
     borderopacity="0.25"
     inkscape:showpageshadow="2"
     inkscape:pageopacity="0.0"
     inkscape:pagecheckerboard="0"
     inkscape:deskcolor="#d1d1d1"
     inkscape:document-units="mm"
     inkscape:zoom="2.0888418"
     inkscape:cx="91.43823"
     inkscape:cy="97.422407"
     inkscape:current-layer="layer1" />
  <defs
     id="defs1" />
  <g
     inkscape:label="Livello 1"
     inkscape:groupmode="layer"
     id="layer1"
     transform="translate(-179.3875,-36.5125)">
    <circle
       style="fill:#61aa7d;stroke:#000000;stroke-width:1.69333;stroke-linejoin:bevel;fill-opacity:1"
       id="path162"
       cx="204.93385"
       cy="62.058857"
       r="24.699692" />
    <path
       d="m 204.59566,74.35638 c -1.31877,-0.39709 -2.53703,-1.32932 -3.35914,-2.57048 -0.92582,-1.39774 -0.98235,-1.7222 -0.38626,-2.21692 0.46706,-0.38762 0.59302,-0.27643 1.45709,1.28623 0.23507,0.4251 0.88056,1.11863 1.43444,1.54116 0.9068,0.69177 1.20665,0.76825 3.01219,0.76825 2.25223,0 3.11043,-0.42025 4.45315,-2.18068 0.64415,-0.84453 0.72728,-1.18127 0.72947,-2.95496 0.002,-1.65989 0.0781,-2.01638 0.44517,-2.08707 0.85457,-0.16458 1.42851,2.00352 0.99007,3.74005 -1.18715,4.701959 -6.30932,5.41719 -8.77618,4.67442 z M 187.72725,62.32326 c -0.57855,-1.52172 0.56347,-4.24015 2.27359,-5.41194 1.04613,-0.71682 3.46844,-0.99921 5.00483,-0.58346 1.47546,0.39926 3.25742,2.24311 3.35864,3.4753 0.10937,1.33135 -0.741,1.27223 -1.51209,-0.10512 -0.83771,-1.49636 -1.80505,-2.09934 -3.54651,-2.21069 -2.51154,-0.16058 -4.01641,1.21377 -4.25803,3.88873 -0.10109,1.11911 -0.24133,1.48533 -0.59455,1.55258 -0.30054,0.0572 -0.55447,-0.15457 -0.72588,-0.6054 z m 20.55596,-4.53942 c -0.3211,-0.3211 -0.20154,-2.72288 0.17979,-3.61157 0.44522,-1.03759 1.88283,-2.43868 2.89304,-2.81955 1.09932,-0.41446 3.54596,-0.34115 4.55232,0.1364 1.10668,0.52516 3.30181,2.8827 3.30181,3.54611 0,0.27986 -0.25254,0.57909 -0.57515,0.68149 -0.60464,0.1919 -0.76752,0.045 -1.58233,-1.4273 -0.62079,-1.12172 -1.55556,-1.64588 -3.17984,-1.78305 -2.57963,-0.21785 -4.13223,1.10405 -4.41832,3.76181 -0.11762,1.09259 -0.28608,1.56717 -0.57601,1.6227 -0.22538,0.0432 -0.49327,-0.005 -0.59531,-0.10704 z"
       style="display:inline;fill:#000000"
       id="path1"
       sodipodi:nodetypes="cscccsscssccsssscsccssssscssccs" />
  </g>
</svg>
