<?xml version="1.0" encoding="UTF-8" standalone="no"?>
<!-- Created with Inkscape (http://www.inkscape.org/) -->

<svg
   width="51.092712mm"
   height="51.092712mm"
   viewBox="0 0 51.092712 51.092712"
   version="1.1"
   id="svg1"
   inkscape:version="1.4 (86a8ad7, 2024-10-11)"
   sodipodi:docname="contrariato.svg"
   xmlns:inkscape="http://www.inkscape.org/namespaces/inkscape"
   xmlns:sodipodi="http://sodipodi.sourceforge.net/DTD/sodipodi-0.dtd"
   xmlns="http://www.w3.org/2000/svg"
   xmlns:svg="http://www.w3.org/2000/svg">
  <sodipodi:namedview
     id="namedview1"
     pagecolor="#ffffff"
     bordercolor="#000000"
     borderopacity="0.25"
     inkscape:showpageshadow="2"
     inkscape:pageopacity="0.0"
     inkscape:pagecheckerboard="0"
     inkscape:deskcolor="#d1d1d1"
     inkscape:document-units="mm"
     inkscape:zoom="2.0888418"
     inkscape:cx="-100.05545"
     inkscape:cy="174.01988"
     inkscape:current-layer="layer1" />
  <defs
     id="defs1" />
  <g
     inkscape:label="Livello 1"
     inkscape:groupmode="layer"
     id="layer1"
     transform="translate(-179.3875,-36.5125)">
    <circle
       style="fill:#f37d5d;stroke:#000000;stroke-width:1.69333;stroke-linejoin:bevel;fill-opacity:1"
       id="path162"
       cx="204.93385"
       cy="62.058857"
       r="24.699692" />
    <path
       d="m 196.62175,74.726133 c -1.40624,-0.63832 -1.59056,-1.48489 -0.26459,-1.21523 2.18474,0.44431 2.50272,0.45352 2.87304,0.0832 1.05773,-1.05774 2.11356,-1.22332 3.52094,-0.55219 l 0.92182,0.43958 1.07229,-0.96875 c 1.23823,-1.11866 1.51172,-1.15949 2.9278,-0.43706 l 1.04219,0.53169 1.21873,-0.93027 c 1.16772,-0.89135 1.71285,-0.993 1.6942,-0.31593 -0.005,0.17331 -0.5378,0.76751 -1.1845,1.32044 -1.0357,0.88551 -1.28727,0.98441 -2.11091,0.8299 -0.5143,-0.0965 -1.00033,-0.28099 -1.08007,-0.41001 -0.28673,-0.46394 -1.32167,-0.19831 -2.22043,0.56991 -1.0421,0.89074 -1.44712,0.94945 -2.59605,0.37628 -0.99063,-0.49419 -1.91347,-0.30418 -2.72664,0.56139 -0.7237,0.77035 -1.57726,0.8027 -3.08782,0.11704 z m -5.10868,-12.16427 c -1.32371,-0.40166 -1.88808,-0.86436 -2.38248,-1.95327 -0.97254,-2.14198 -0.43637,-4.5774 1.29136,-5.86563 0.54465,-0.40611 1.09565,-0.52342 2.36931,-0.50446 1.42417,0.0212 1.79673,0.13569 2.62604,0.8069 2.62157,2.12181 1.91607,6.52504 -1.1948,7.45708 -1.15883,0.34719 -1.72039,0.3595 -2.70943,0.0594 z m 3.17717,-4.89249 c 1.00035,-1.20534 -0.67492,-2.92138 -1.83079,-1.87533 -0.59948,0.54252 -0.70293,1.45546 -0.21968,1.93871 0.43705,0.43705 1.66669,0.39905 2.05047,-0.0634 z m 17.60807,4.64276 c -1.48612,-0.71997 -2.32174,-1.95258 -2.46084,-3.62995 -0.0996,-1.20125 -0.0119,-1.52187 0.69852,-2.55449 1.0315,-1.49924 2.33935,-2.14705 4.01045,-1.98648 2.45448,0.23584 4.16807,2.32626 3.88262,4.73643 -0.1893,1.59838 -0.48479,2.15135 -1.607,3.0073 -1.22509,0.93443 -3.10945,1.11237 -4.52375,0.42719 z m 3.95091,-5.12749 c 0.21257,-0.6082 0.15793,-0.83168 -0.32024,-1.30985 -0.7942,-0.79421 -2.00311,-0.41083 -2.12843,0.67498 -0.11661,1.01026 0.3932,1.54479 1.38086,1.44785 0.61355,-0.0602 0.87403,-0.25855 1.06781,-0.81298 z"
       style="display:inline;fill:#000000"
       id="path1"
       sodipodi:nodetypes="cssscsscccccsssccccccscscccssccsccssssssccs" />
  </g>
</svg>
