<?xml version="1.0" encoding="UTF-8" standalone="no"?>
<!-- Created with Inkscape (http://www.inkscape.org/) -->

<svg
   width="51.092712mm"
   height="51.092712mm"
   viewBox="0 0 51.092712 51.092712"
   version="1.1"
   id="svg1"
   inkscape:version="1.4 (86a8ad7, 2024-10-11)"
   sodipodi:docname="distaccato.svg"
   xmlns:inkscape="http://www.inkscape.org/namespaces/inkscape"
   xmlns:sodipodi="http://sodipodi.sourceforge.net/DTD/sodipodi-0.dtd"
   xmlns="http://www.w3.org/2000/svg"
   xmlns:svg="http://www.w3.org/2000/svg">
  <sodipodi:namedview
     id="namedview1"
     pagecolor="#ffffff"
     bordercolor="#000000"
     borderopacity="0.25"
     inkscape:showpageshadow="2"
     inkscape:pageopacity="0.0"
     inkscape:pagecheckerboard="0"
     inkscape:deskcolor="#d1d1d1"
     inkscape:document-units="mm"
     inkscape:zoom="2.0888418"
     inkscape:cx="91.43823"
     inkscape:cy="97.18304"
     inkscape:current-layer="layer1" />
  <defs
     id="defs1" />
  <g
     inkscape:label="Livello 1"
     inkscape:groupmode="layer"
     id="layer1"
     transform="translate(-179.3875,-36.5125)">
    <circle
       style="fill:#48c1dc;stroke:#000000;stroke-width:1.69333;stroke-linejoin:bevel;fill-opacity:1"
       id="path162"
       cx="204.93385"
       cy="62.058857"
       r="24.699692" />
    <path
       d="m 196.8924,72.278278 c -0.34497,-0.238359 -0.33267,-0.315694 0.0941,-0.591261 0.27001,-0.174368 0.91146,-0.644456 1.42544,-1.044638 1.15562,-0.899756 1.7882,-0.913541 3.03525,-0.06615 0.53539,0.363802 1.17092,0.661459 1.41229,0.661459 0.24138,0 0.79261,-0.297657 1.22496,-0.661459 0.43236,-0.363802 1.04698,-0.661458 1.36584,-0.661458 0.31886,0 1.01778,0.297656 1.55316,0.661458 1.17539,0.798699 1.71539,0.828725 2.45238,0.136363 1.02332,-0.961367 1.9853,-0.942683 3.45047,0.06702 0.724,0.498932 1.31636,1.073999 1.31636,1.277926 0,0.553293 -1.41881,0.364926 -2.10469,-0.279427 -0.74642,-0.701223 -1.10021,-0.681326 -2.15216,0.121039 -0.47817,0.364713 -1.22212,0.661458 -1.65832,0.661458 -0.45783,0 -1.12227,-0.278658 -1.5772,-0.661458 -0.98508,-0.82889 -1.23797,-0.825738 -2.47401,0.03084 -1.15112,0.797732 -2.45395,0.730624 -3.26747,-0.168304 -0.62516,-0.690795 -1.08872,-0.660955 -2.1355,0.137466 -0.94441,0.720336 -1.35278,0.799293 -1.96086,0.379128 z m -4.90821,-10.851869 c -0.28974,-0.468811 0.33889,-0.918318 3.30743,-2.365006 1.5976,-0.778576 2.96282,-1.566957 3.03381,-1.751957 0.1272,-0.331483 -2.64313,-2.211337 -3.25884,-2.211337 -0.16576,0 -0.74549,-0.276589 -1.28831,-0.614643 -0.54281,-0.338053 -1.19529,-0.691503 -1.44995,-0.785446 -0.53003,-0.195525 -0.63281,-0.981161 -0.12835,-0.981161 0.40463,0 3.60645,1.523016 4.16325,1.980344 0.21828,0.179286 0.7672,0.449906 1.21982,0.601379 1.30143,0.435533 3.0109,1.61517 2.87046,1.980791 -0.11761,0.306201 -1.98402,1.378369 -3.56111,2.045701 -0.36381,0.153939 -1.31631,0.643138 -2.11667,1.087108 -2.02582,1.123743 -2.59585,1.330849 -2.79154,1.014227 z m 23.12536,-1.787171 c -3.97247,-2.092843 -4.36096,-2.377426 -3.87679,-2.839855 0.49052,-0.468492 7.61914,-4.082524 8.05271,-4.082524 0.94963,0 0.16405,0.833326 -1.63484,1.734214 -1.09777,0.54976 -2.0573,1.098838 -2.13228,1.220174 -0.075,0.121337 -0.33768,0.221203 -0.58376,0.221926 -0.63012,0.0019 -1.94173,1.131132 -1.70301,1.466275 0.16185,0.227226 2.82526,1.662603 5.81761,3.135243 0.32628,0.160578 0.59417,0.440787 0.59531,0.622688 0.004,0.660353 -1.25456,0.250093 -4.53495,-1.478141 z"
       style="display:inline;fill:#000000"
       id="path1"
       sodipodi:nodetypes="ccsssssscssssssssscccssssssssssscssssccsscs" />
  </g>
</svg>
