<?xml version="1.0" encoding="UTF-8" standalone="no"?>
<!-- Created with Inkscape (http://www.inkscape.org/) -->

<svg
   width="51.092712mm"
   height="51.092712mm"
   viewBox="0 0 51.092712 51.092712"
   version="1.1"
   id="svg1"
   inkscape:version="1.4 (86a8ad7, 2024-10-11)"
   sodipodi:docname="entusiasta.svg"
   xmlns:inkscape="http://www.inkscape.org/namespaces/inkscape"
   xmlns:sodipodi="http://sodipodi.sourceforge.net/DTD/sodipodi-0.dtd"
   xmlns="http://www.w3.org/2000/svg"
   xmlns:svg="http://www.w3.org/2000/svg">
  <sodipodi:namedview
     id="namedview1"
     pagecolor="#ffffff"
     bordercolor="#000000"
     borderopacity="0.25"
     inkscape:showpageshadow="2"
     inkscape:pageopacity="0.0"
     inkscape:pagecheckerboard="0"
     inkscape:deskcolor="#d1d1d1"
     inkscape:document-units="mm"
     inkscape:zoom="2.0888418"
     inkscape:cx="91.43823"
     inkscape:cy="97.422407"
     inkscape:current-layer="layer1" />
  <defs
     id="defs1" />
  <g
     inkscape:label="Livello 1"
     inkscape:groupmode="layer"
     id="layer1"
     transform="translate(-179.3875,-36.5125)">
    <circle
       style="fill:#fbae0f;stroke:#000000;stroke-width:1.69333;stroke-linejoin:bevel;fill-opacity:1"
       id="path162"
       cx="204.93385"
       cy="62.058857"
       r="24.699692" />
    <path
       d="m 203.66289,75.713505 c -1.48893,-0.457502 -2.24543,-1.337613 -2.47698,-2.881692 -0.24539,-1.636403 0.30429,-2.899892 1.89352,-4.352353 1.52735,-1.395909 2.79168,-1.871982 4.97153,-1.871982 2.84051,0 4.12799,1.104568 4.12799,3.541512 0,1.64384 -0.28579,2.251649 -1.72662,3.67213 -1.84013,1.814139 -4.56886,2.574704 -6.78944,1.892385 z m -6.44287,-11.593533 c -3.88534,-1.692578 -3.99977,-6.99559 -0.18734,-8.682007 2.99908,-1.326637 6.41502,0.915321 6.41502,4.210322 0,1.646735 -0.4383,2.644314 -1.58621,3.610216 -1.36456,1.148206 -3.20089,1.489032 -4.64147,0.861469 z m 3.31727,-6.105146 c 0,-0.785102 -0.36242,-1.031566 -1.20567,-0.819924 -0.77644,0.194876 -0.90055,1.306564 -0.19023,1.704078 0.648,0.362639 1.3959,-0.111075 1.3959,-0.884154 z m 11.43371,6.02343 c -0.33265,-0.06375 -1.06442,-0.553551 -1.62615,-1.088447 -3.08597,-2.938542 -1.14807,-7.983998 3.06655,-7.983998 4.04259,0 6.21712,4.400837 3.73422,7.557334 -1.03507,1.315881 -3.08391,1.915775 -5.17462,1.515111 z m 3.10783,-5.487873 c 0.76636,-0.923406 -0.67218,-2.221494 -1.52109,-1.37258 -0.33685,0.336843 -0.35712,0.53978 -0.10846,1.085527 0.33886,0.743736 1.13426,0.883848 1.62955,0.287053 z m 3.51627,-4.299801 c -0.1819,-0.06744 -0.33073,-0.535327 -0.33073,-1.03975 0,-1.84465 -1.41264,-3.274096 -3.23265,-3.271115 -0.92757,0.0015 -2.19498,0.901819 -2.5808,1.833267 -0.42172,1.018136 -1.40893,1.058159 -1.54991,0.06284 -0.21816,-1.540207 2.32199,-3.737554 4.32065,-3.737554 1.2975,0 2.94379,0.908576 3.69032,2.036664 1.13234,1.71108 0.91212,4.571301 -0.31688,4.115652 z m -25.75859,-0.695461 c -0.39683,-0.870961 0.11918,-2.606897 1.11055,-3.736004 0.9606,-1.094058 2.28268,-1.574896 3.8458,-1.39871 2.07391,0.23376 4.43385,2.89266 3.75466,4.2303 -0.35266,0.694553 -1.14112,0.557789 -1.52535,-0.264583 -0.18698,-0.400182 -0.42714,-0.906198 -0.5337,-1.124479 -0.49511,-1.014196 -2.84268,-1.400616 -3.92091,-0.645397 -0.73032,0.511539 -1.38027,1.730343 -1.38027,2.588325 0,0.35546 -0.18833,0.71856 -0.41852,0.806889 -0.60348,0.231577 -0.62323,0.221909 -0.93226,-0.456341 z"
       style="fill:#000000"
       id="path1"
       sodipodi:nodetypes="ssssssssssssssssssssssscssscsssssssssscssscs" />
  </g>
</svg>
