<?xml version="1.0" encoding="UTF-8" standalone="no"?>
<!-- Created with Inkscape (http://www.inkscape.org/) -->

<svg
   width="51.092712mm"
   height="51.092712mm"
   viewBox="0 0 51.092712 51.092712"
   version="1.1"
   id="svg1"
   inkscape:version="1.4 (86a8ad7, 2024-10-11)"
   sodipodi:docname="escluso.svg"
   xmlns:inkscape="http://www.inkscape.org/namespaces/inkscape"
   xmlns:sodipodi="http://sodipodi.sourceforge.net/DTD/sodipodi-0.dtd"
   xmlns="http://www.w3.org/2000/svg"
   xmlns:svg="http://www.w3.org/2000/svg">
  <sodipodi:namedview
     id="namedview1"
     pagecolor="#ffffff"
     bordercolor="#000000"
     borderopacity="0.25"
     inkscape:showpageshadow="2"
     inkscape:pageopacity="0.0"
     inkscape:pagecheckerboard="0"
     inkscape:deskcolor="#d1d1d1"
     inkscape:document-units="mm"
     inkscape:zoom="2.0888418"
     inkscape:cx="91.43823"
     inkscape:cy="97.422407"
     inkscape:current-layer="layer1" />
  <defs
     id="defs1" />
  <g
     inkscape:label="Livello 1"
     inkscape:groupmode="layer"
     id="layer1"
     transform="translate(-179.3875,-36.5125)">
    <circle
       style="fill:#6892cc;stroke:#000000;stroke-width:1.69333;stroke-linejoin:bevel;fill-opacity:1"
       id="path162"
       cx="204.93385"
       cy="62.058857"
       r="24.699692" />
    <path
       d="m 197.66046,72.032386 c -0.69371,-0.83586 0.2888,-3.64001 1.86219,-5.3148 0.34008,-0.36201 1.16032,-0.97734 1.82274,-1.36741 1.04934,-0.61792 1.4989,-0.71074 3.49173,-0.72096 1.81856,-0.009 2.39218,0.0832 2.79896,0.45129 0.2814,0.25466 0.62132,0.4673 0.75538,0.47253 0.4281,0.0167 1.58215,1.14256 2.47805,2.41748 0.97503,1.38753 1.37111,3.37728 0.80748,4.05643 -0.49643,0.59815 -0.95407,0.0773 -1.33789,-1.52263 -0.40755,-1.69888 -2.22101,-3.76389 -3.65525,-4.16228 -3.85306,-1.07026 -6.87245,0.8418 -7.90243,5.00432 -0.25772,1.04154 -0.63453,1.27215 -1.12096,0.68603 z m -5.89494,-12.1587 c -1.77151,-0.63215 -2.81089,-1.75992 -3.29582,-3.57611 -0.322,-1.20599 -0.20082,-3.08055 0.21579,-3.33803 0.54754,-0.3384 5.48503,-1.69289 6.7448,-1.85029 1.25971,-0.15739 1.46344,-0.10939 2.05763,0.48479 0.86063,0.86063 1.31031,2.58077 1.09118,4.17404 -0.28529,2.07429 -1.80631,3.72877 -3.86411,4.20317 -1.4816,0.34157 -1.74307,0.33292 -2.94947,-0.0976 z m 3.5274,-5.48418 c 0.45433,-1.7127 -1.29955,-2.75312 -2.36269,-1.40156 -0.51485,0.65453 -0.52505,0.75653 -0.14838,1.48492 0.35126,0.67926 0.53069,0.77142 1.36452,0.70086 0.78451,-0.0664 0.99418,-0.20979 1.14655,-0.78422 z m 18.9312,5.54965 c -1.94281,-0.5396 -3.60453,-2.92568 -3.60453,-5.17579 0,-0.91126 0.54848,-2.28919 1.27989,-3.21544 0.44793,-0.56725 0.63707,-0.6159 1.79324,-0.46119 1.22303,0.16365 6.49533,1.5889 6.97552,1.88567 0.42805,0.26455 0.59198,2.29333 0.2764,3.4205 -0.7643,2.72981 -3.83193,4.34852 -6.72052,3.54625 z m 4.05511,-4.56609 c 0.17385,-0.20948 0.27773,-0.71331 0.23083,-1.11961 -0.18104,-1.56859 -2.86339,-1.45714 -2.86339,0.11898 0,0.41058 0.14288,0.88938 0.3175,1.064 0.4394,0.4394 1.9317,0.39855 2.31506,-0.0634 z m 2.12994,-3.71192 c -0.65484,-0.1948 -1.84547,-0.50006 -2.64583,-0.67837 -2.58185,-0.57518 -5.59449,-1.6352 -5.74233,-2.02047 -0.32628,-0.85027 -0.17952,-0.82993 6.27149,0.86928 3.3734,0.88857 4.00872,1.15441 3.91485,1.63812 -0.10944,0.56396 -0.43083,0.59818 -1.79818,0.19144 z m -33.48404,-0.16359 c -0.0978,-0.1582 -0.075,-0.38912 0.0505,-0.51316 0.38367,-0.37899 8.92585,-2.64593 9.95174,-2.64101 0.52635,0.003 0.63668,0.76144 0.13229,0.90997 -0.1819,0.0536 -1.52135,0.45728 -2.97656,0.89713 -2.62743,0.79417 -6.06129,1.63672 -6.66512,1.6354 -0.17331,-3.9e-4 -0.39511,-0.13013 -0.49288,-0.28833 z"
       style="display:inline;fill:#000000"
       id="path1"
       sodipodi:nodetypes="cccccsscsssccssscsscccssccssssscsccssccscscsscccccccc" />
  </g>
</svg>
