<?xml version="1.0" encoding="UTF-8" standalone="no"?>
<!-- Created with Inkscape (http://www.inkscape.org/) -->

<svg
   width="51.092712mm"
   height="51.092712mm"
   viewBox="0 0 51.092712 51.092712"
   version="1.1"
   id="svg1"
   inkscape:version="1.4 (86a8ad7, 2024-10-11)"
   sodipodi:docname="frustrato.svg"
   xmlns:inkscape="http://www.inkscape.org/namespaces/inkscape"
   xmlns:sodipodi="http://sodipodi.sourceforge.net/DTD/sodipodi-0.dtd"
   xmlns="http://www.w3.org/2000/svg"
   xmlns:svg="http://www.w3.org/2000/svg">
  <sodipodi:namedview
     id="namedview1"
     pagecolor="#ffffff"
     bordercolor="#000000"
     borderopacity="0.25"
     inkscape:showpageshadow="2"
     inkscape:pageopacity="0.0"
     inkscape:pagecheckerboard="0"
     inkscape:deskcolor="#d1d1d1"
     inkscape:document-units="mm"
     inkscape:zoom="2.0888418"
     inkscape:cx="-100.05545"
     inkscape:cy="174.01988"
     inkscape:current-layer="layer1" />
  <defs
     id="defs1" />
  <g
     inkscape:label="Livello 1"
     inkscape:groupmode="layer"
     id="layer1"
     transform="translate(-179.3875,-36.5125)">
    <circle
       style="fill:#ed4924;stroke:#000000;stroke-width:1.69333;stroke-linejoin:bevel;fill-opacity:1"
       id="path162"
       cx="204.93385"
       cy="62.058857"
       r="24.699692" />
    <path
       d="m 199.58144,73.924328 c 0,-0.8311 0.45497,-1.01812 4.49792,-1.84891 1.67349,-0.34388 3.56369,-0.81122 4.20045,-1.03854 1.58268,-0.56498 2.33629,-0.52395 2.69523,0.14674 0.23251,0.43445 0.2184,0.64137 -0.0629,0.9227 -0.49154,0.49154 -8.61196,2.48602 -10.12172,2.48602 -1.11631,0 -1.20894,-0.0512 -1.20894,-0.66801 z m -4.96172,-7.87255 c -1.39124,-0.52725 -2.40306,-1.67923 -2.86222,-3.25869 -0.38189,-1.31364 -0.38138,-1.54821 0.006,-2.7141 1.23066,-3.70518 5.63903,-4.53805 8.25422,-1.55947 1.92548,2.19303 1.15914,5.92803 -1.48385,7.23203 -1.18611,0.58519 -2.82947,0.71125 -3.91402,0.30023 z m 3.63881,-5.48236 c 0.64365,-0.64366 0.6636,-1.0004 0.0913,-1.63281 -0.49726,-0.54947 -1.68057,-0.64081 -2.15503,-0.16635 -0.75567,0.75567 -0.0638,2.32833 1.02432,2.32833 0.28064,0 0.74839,-0.23813 1.03943,-0.52917 z m 11.90212,5.06586 c -2.19447,-1.16731 -3.23779,-4.18828 -2.16747,-6.27597 1.05834,-2.06433 3.36895,-3.30193 5.21373,-2.79256 3.30772,0.91331 4.79478,4.22499 3.22777,7.18825 -1.11973,2.11744 -4.1314,3.02001 -6.27403,1.88028 z m 4.24281,-5.34043 c 0.1587,-0.29654 0.20637,-0.80256 0.10594,-1.12448 -0.4942,-1.58405 -2.75713,-1.22561 -2.75713,0.43672 0,1.15446 2.10866,1.70148 2.65119,0.68776 z m 3.34604,-5.19348 c -0.097,-0.097 -0.17639,-0.63871 -0.17639,-1.20377 0,-2.09605 -1.31269,-3.38234 -3.45175,-3.38234 -1.31974,0 -2.33349,0.65567 -3.03887,1.96547 -0.52237,0.96998 -1.02417,1.20947 -1.25791,0.60036 -0.22084,-0.5755 0.47324,-1.86636 1.47776,-2.74833 1.10826,-0.97307 3.22688,-1.38279 4.55098,-0.88013 1.19729,0.45453 2.48955,1.84305 2.80478,3.0137 0.46369,1.72204 -0.12226,3.42138 -0.9086,2.63504 z m -27.82724,-0.62331 c -0.41301,-1.30129 0.97612,-3.82825 2.55264,-4.6435 1.29652,-0.67046 3.61609,-0.41646 4.85979,0.53215 1.50081,1.14473 2.32406,3.58813 1.20894,3.58813 -0.34849,0 -0.60668,-0.29704 -0.82,-0.94339 -0.3622,-1.0975 -2.11021,-2.49619 -3.11958,-2.49619 -0.98919,0 -2.84575,1.19429 -3.17186,2.0404 -0.15638,0.40575 -0.36076,1.12467 -0.45419,1.59762 -0.18967,0.96021 -0.79496,1.14642 -1.05574,0.32478 z"
       style="display:inline;fill:#000000"
       id="path1"
       sodipodi:nodetypes="cscscscccscscccccssccsssssscssssssscccscscscsccc" />
  </g>
</svg>
