<?xml version="1.0" encoding="UTF-8" standalone="no"?>
<!-- Created with Inkscape (http://www.inkscape.org/) -->

<svg
   width="51.092712mm"
   height="51.092712mm"
   viewBox="0 0 51.092712 51.092712"
   version="1.1"
   id="svg1"
   inkscape:version="1.4 (86a8ad7, 2024-10-11)"
   sodipodi:docname="grato.svg"
   xmlns:inkscape="http://www.inkscape.org/namespaces/inkscape"
   xmlns:sodipodi="http://sodipodi.sourceforge.net/DTD/sodipodi-0.dtd"
   xmlns="http://www.w3.org/2000/svg"
   xmlns:svg="http://www.w3.org/2000/svg">
  <sodipodi:namedview
     id="namedview1"
     pagecolor="#ffffff"
     bordercolor="#000000"
     borderopacity="0.25"
     inkscape:showpageshadow="2"
     inkscape:pageopacity="0.0"
     inkscape:pagecheckerboard="0"
     inkscape:deskcolor="#d1d1d1"
     inkscape:document-units="mm"
     inkscape:zoom="2.0888418"
     inkscape:cx="91.43823"
     inkscape:cy="97.422407"
     inkscape:current-layer="layer1" />
  <defs
     id="defs1" />
  <g
     inkscape:label="Livello 1"
     inkscape:groupmode="layer"
     id="layer1"
     transform="translate(-179.3875,-36.5125)">
    <circle
       style="fill:#98c43d;stroke:#000000;stroke-width:1.69333;stroke-linejoin:bevel;fill-opacity:1"
       id="path162"
       cx="204.93385"
       cy="62.058857"
       r="24.699692" />
    <path
       d="m 202.55404,73.219532 c -0.99421,-0.5079 -1.68762,-1.11582 -2.2964,-2.01326 -0.97053,-1.43073 -1.0745,-2.04605 -0.45106,-2.66949 0.36265,-0.36264 1.17549,-0.41115 5.85838,-0.34963 6.1995,0.0814 6.24477,0.0976 5.66961,2.0173 -0.96802,3.23095 -5.3874,4.74849 -8.78053,3.01508 z m -9.38623,-12.23087 c -0.90772,-0.38584 -2.14408,-1.70583 -2.46794,-2.63486 -0.44091,-1.26479 -0.38642,-2.17663 0.21376,-3.57677 0.44185,-1.0308 0.7424,-1.32402 1.91823,-1.87144 1.76116,-0.81992 2.80096,-0.82187 4.40657,-0.008 1.04934,0.53174 1.37547,0.87981 1.84329,1.96728 0.71233,1.65586 0.71349,2.3754 0.006,3.88003 -0.74165,1.5778 -2.27459,2.50915 -4.09131,2.48571 -0.71481,-0.009 -1.53779,-0.11799 -1.82883,-0.2417 z m 3.42068,-4.9198 c 0.84011,-0.84011 0.35716,-2.23006 -0.77485,-2.23006 -1.14661,0 -1.58079,1.247 -0.75274,2.16198 0.53696,0.59334 0.98248,0.6132 1.52759,0.0681 z m 14.62423,1.04228 c -0.33381,-0.33381 -0.18385,-1.53067 0.33502,-2.67371 0.59849,-1.31846 2.35222,-2.55703 3.9918,-2.81921 2.99231,-0.47849 6.07098,1.90898 6.07098,4.70797 0,0.76122 -0.10147,0.9522 -0.50591,0.9522 -0.37743,0 -0.5499,-0.25198 -0.67911,-0.99219 -0.24334,-1.39403 -1.63637,-2.95254 -2.8922,-3.23577 -2.56137,-0.57769 -4.78504,0.77703 -5.17078,3.15017 -0.1442,0.88709 -0.71848,1.34187 -1.1498,0.91054 z"
       style="display:inline;fill:#000000"
       id="path1"
       sodipodi:nodetypes="ssscsscscccccccccscccscssssccs" />
  </g>
</svg>
