<?xml version="1.0" encoding="UTF-8" standalone="no"?>
<!-- Created with Inkscape (http://www.inkscape.org/) -->

<svg
   width="51.092712mm"
   height="51.092712mm"
   viewBox="0 0 51.092712 51.092712"
   version="1.1"
   id="svg1"
   inkscape:version="1.4 (86a8ad7, 2024-10-11)"
   sodipodi:docname="speranzoso.svg"
   xmlns:inkscape="http://www.inkscape.org/namespaces/inkscape"
   xmlns:sodipodi="http://sodipodi.sourceforge.net/DTD/sodipodi-0.dtd"
   xmlns="http://www.w3.org/2000/svg"
   xmlns:svg="http://www.w3.org/2000/svg">
  <sodipodi:namedview
     id="namedview1"
     pagecolor="#ffffff"
     bordercolor="#000000"
     borderopacity="0.25"
     inkscape:showpageshadow="2"
     inkscape:pageopacity="0.0"
     inkscape:pagecheckerboard="0"
     inkscape:deskcolor="#d1d1d1"
     inkscape:document-units="mm"
     inkscape:zoom="2.0888418"
     inkscape:cx="91.43823"
     inkscape:cy="97.422407"
     inkscape:current-layer="layer1" />
  <defs
     id="defs1" />
  <g
     inkscape:label="Livello 1"
     inkscape:groupmode="layer"
     id="layer1"
     transform="translate(-179.3875,-36.5125)">
    <circle
       style="fill:#feed95;stroke:#000000;stroke-width:1.69333;stroke-linejoin:bevel;fill-opacity:1"
       id="path162"
       cx="204.93385"
       cy="62.058857"
       r="24.699692" />
    <path
       d="m 202.70249,75.823576 c -2.40785,-1.04987 -3.99479,-3.26936 -3.99479,-5.5871 0,-2.64736 1.39728,-2.19566 1.85208,0.59872 0.27598,1.69571 0.72406,2.33172 2.15853,3.06385 2.10549,1.07461 4.35963,0.89535 5.99688,-0.4769 0.63881,-0.53542 1.039,-1.23753 1.47448,-2.58695 0.46306,-1.43486 0.72206,-1.87046 1.14973,-1.93366 1.0616,-0.15687 1.09345,1.94137 0.0593,3.90573 -0.50752,0.964 -2.08263,2.40041 -3.36675,3.07029 -0.94586,0.49341 -4.14837,0.46098 -5.32943,-0.054 z m -12.36578,-13.98422 c -0.0838,-0.21828 -0.0872,-0.56649 -0.008,-0.77381 0.0796,-0.20732 1.99729,-1.30517 4.26164,-2.43967 2.26435,-1.1345 4.11699,-2.20701 4.11699,-2.38335 0,-0.17635 -0.26788,-0.40525 -0.59531,-0.50868 -1.15255,-0.36406 -7.44709,-3.55789 -7.65389,-3.88355 -0.33635,-0.52966 -0.24932,-1.26011 0.16927,-1.42074 0.33775,-0.12961 10.04617,4.5383 10.92421,5.25247 0.94168,0.76594 0.36964,1.2163 -4.94745,3.89506 -2.90299,1.46253 -5.46657,2.65915 -5.69684,2.65915 -0.23027,0 -0.48721,-0.17859 -0.57097,-0.39688 z m 24.77515,-2.14479 c -2.69213,-1.39263 -5.05524,-2.68626 -5.25135,-2.87474 -0.26015,-0.25003 -0.28341,-0.47937 -0.086,-0.84819 0.3634,-0.67901 10.42891,-5.70184 10.99269,-5.4855 0.23655,0.0908 0.4301,0.45604 0.4301,0.8117 0,0.49942 -0.2259,0.73813 -0.99219,1.04845 -1.58418,0.64154 -5.39781,2.52478 -6.51501,3.21723 -0.85546,0.53022 -0.96482,0.69136 -0.66146,0.97464 0.1999,0.18666 2.17772,1.2772 4.39516,2.42342 2.21744,1.14622 4.03315,2.20905 4.0349,2.36185 0.005,0.41057 -0.57241,0.91351 -1.04192,0.908 -0.22556,-0.003 -2.61276,-1.14424 -5.3049,-2.53686 z"
       style="fill:#000000"
       id="path1"
       sodipodi:nodetypes="cssssscccccccssccsssscccsccsssssccsc" />
  </g>
</svg>
