<?xml version="1.0" encoding="UTF-8" standalone="no"?>
<!-- Created with Inkscape (http://www.inkscape.org/) -->

<svg
   width="51.092712mm"
   height="51.092712mm"
   viewBox="0 0 51.092712 51.092712"
   version="1.1"
   id="svg1"
   inkscape:version="1.4 (86a8ad7, 2024-10-11)"
   sodipodi:docname="isolato.svg"
   xmlns:inkscape="http://www.inkscape.org/namespaces/inkscape"
   xmlns:sodipodi="http://sodipodi.sourceforge.net/DTD/sodipodi-0.dtd"
   xmlns="http://www.w3.org/2000/svg"
   xmlns:svg="http://www.w3.org/2000/svg">
  <sodipodi:namedview
     id="namedview1"
     pagecolor="#ffffff"
     bordercolor="#000000"
     borderopacity="0.25"
     inkscape:showpageshadow="2"
     inkscape:pageopacity="0.0"
     inkscape:pagecheckerboard="0"
     inkscape:deskcolor="#d1d1d1"
     inkscape:document-units="mm"
     inkscape:zoom="2.0888418"
     inkscape:cx="91.43823"
     inkscape:cy="97.422407"
     inkscape:current-layer="layer1" />
  <defs
     id="defs1" />
  <g
     inkscape:label="Livello 1"
     inkscape:groupmode="layer"
     id="layer1"
     transform="translate(-179.3875,-36.5125)">
    <circle
       style="fill:#4dace2;stroke:#000000;stroke-width:1.69333;stroke-linejoin:bevel;fill-opacity:1"
       id="path162"
       cx="204.93385"
       cy="62.058857"
       r="24.699692" />
    <path
       d="m 209.63676,71.041669 c -0.0562,-0.194 -0.24604,-0.88851 -0.42183,-1.54335 -0.67143,-2.50123 -3.62984,-4.05649 -6.00745,-3.15817 -1.47562,0.55753 -3.25837,2.85874 -3.25837,4.20596 0,0.30335 -0.17381,0.53971 -0.39688,0.53971 -0.55682,0 -0.5285,-2.0664 0.04,-2.91769 2.01164,-3.01238 5.02463,-3.9071 8.01677,-2.38063 1.46082,0.74526 2.69706,2.61703 2.74983,4.16348 0.026,0.76263 -0.0811,1.25422 -0.28926,1.32732 -0.18182,0.0639 -0.37659,-0.0426 -0.4328,-0.23663 z m -20.11684,-9.18091 c -0.2264,-0.36631 0.571,-0.89439 3.8146,-2.52624 1.67349,-0.84193 3.15667,-1.63879 3.29596,-1.7708 0.42028,-0.39833 -0.34597,-0.9346 -3.83484,-2.68389 -2.08782,-1.04682 -3.32896,-1.82325 -3.38312,-2.11641 -0.0471,-0.25466 0.0743,-0.46302 0.2697,-0.46302 0.4613,0 8.40996,3.90707 8.99227,4.42005 0.24485,0.21569 0.38209,0.55659 0.30498,0.75754 -0.14602,0.38052 -8.38382,4.612 -8.97859,4.612 -0.18661,0 -0.40304,-0.10315 -0.48096,-0.22923 z m 25.6424,-1.78263 c -4.43155,-2.24666 -4.68484,-2.41014 -4.57508,-2.95286 0.0758,-0.37466 8.48605,-4.80997 9.13947,-4.81986 0.63956,-0.01 0.32132,0.75127 -0.52916,1.2653 -0.47295,0.28585 -2.0866,1.14159 -3.58589,1.90165 -1.90243,0.96443 -2.70177,1.50622 -2.64583,1.79333 0.0441,0.22627 1.62797,1.21958 3.51974,2.20736 3.18619,1.66366 4.3256,2.61694 3.12792,2.61694 -0.26551,0 -2.26854,-0.90534 -4.45117,-2.01186 z"
       style="display:inline;fill:#000000"
       id="path1"
       sodipodi:nodetypes="ccssscscccccscscscssccccsscssc" />
  </g>
</svg>
