<?xml version="1.0" encoding="UTF-8" standalone="no"?>
<!-- Created with Inkscape (http://www.inkscape.org/) -->

<svg
   width="51.092712mm"
   height="51.092712mm"
   viewBox="0 0 51.092712 51.092712"
   version="1.1"
   id="svg1"
   inkscape:version="1.4 (86a8ad7, 2024-10-11)"
   sodipodi:docname="solitario.svg"
   xmlns:inkscape="http://www.inkscape.org/namespaces/inkscape"
   xmlns:sodipodi="http://sodipodi.sourceforge.net/DTD/sodipodi-0.dtd"
   xmlns="http://www.w3.org/2000/svg"
   xmlns:svg="http://www.w3.org/2000/svg">
  <sodipodi:namedview
     id="namedview1"
     pagecolor="#ffffff"
     bordercolor="#000000"
     borderopacity="0.25"
     inkscape:showpageshadow="2"
     inkscape:pageopacity="0.0"
     inkscape:pagecheckerboard="0"
     inkscape:deskcolor="#d1d1d1"
     inkscape:document-units="mm"
     inkscape:zoom="2.0888418"
     inkscape:cx="91.43823"
     inkscape:cy="97.18304"
     inkscape:current-layer="layer1" />
  <defs
     id="defs1" />
  <g
     inkscape:label="Livello 1"
     inkscape:groupmode="layer"
     id="layer1"
     transform="translate(-179.3875,-36.5125)">
    <circle
       style="fill:#84d0e7;stroke:#000000;stroke-width:1.69333;stroke-linejoin:bevel;fill-opacity:1"
       id="path162"
       cx="204.93385"
       cy="62.058857"
       r="24.699692" />
    <path
       d="m 199.93209,72.694984 c 0,-1.123296 1.05017,-2.978375 2.20738,-3.899232 0.93423,-0.743429 1.18115,-0.809087 3.0427,-0.809087 2.27663,0 3.06738,0.383574 4.40436,2.136443 0.89018,1.167086 1.25878,3.287515 0.57147,3.287515 -0.25009,0 -0.49188,-0.300683 -0.58508,-0.727604 -0.30729,-1.407614 -0.72117,-2.19987 -1.48498,-2.84258 -1.02058,-0.858755 -2.58118,-1.304298 -3.78048,-1.079307 -1.38459,0.25975 -2.97362,1.788236 -3.40808,3.27822 -0.41047,1.407707 -0.96729,1.785121 -0.96729,0.655632 z m -4.32456,-12.112013 c -2.19658,-0.769579 -3.11526,-2.562353 -2.54059,-4.957843 0.27251,-1.135976 0.48494,-1.426253 1.54011,-2.104552 1.02437,-0.658499 1.42715,-0.768547 2.46962,-0.674757 1.41083,0.126931 2.99965,1.163782 3.40102,2.219487 0.42769,1.124887 0.28856,3.062265 -0.28779,4.007593 -0.84073,1.378953 -2.96168,2.077889 -4.58237,1.510072 z m 2.86935,-5.296306 c 0,-0.903625 -0.0891,-1.070971 -0.60987,-1.144789 -0.77387,-0.109704 -1.3745,0.381585 -1.3745,1.124269 0,0.788351 0.52651,1.249223 1.32106,1.15637 0.58456,-0.06831 0.66331,-0.203172 0.66331,-1.13585 z m 12.90002,5.269968 c -1.20128,-0.52541 -2.45009,-2.325479 -2.44462,-3.523728 0.01,-2.134009 1.92026,-4.055034 4.08035,-4.102812 3.05505,-0.06757 4.94358,2.996335 3.58137,5.810303 -0.93995,1.941676 -3.1618,2.715172 -5.2171,1.816237 z m 3.59349,-4.990537 c 0.11014,-0.556129 -0.6782,-1.470056 -1.26805,-1.470056 -1.14303,0 -1.53535,1.95333 -0.47493,2.364608 0.6949,0.269513 1.60494,-0.197549 1.74298,-0.894552 z"
       style="display:inline;fill:#000000"
       id="path1"
       sodipodi:nodetypes="sssssscsssscsscssscsssscsssssss" />
  </g>
</svg>
