<?xml version="1.0" encoding="UTF-8" standalone="no"?>
<!-- Created with Inkscape (http://www.inkscape.org/) -->

<svg
   width="51.092712mm"
   height="51.092712mm"
   viewBox="0 0 51.092712 51.092712"
   version="1.1"
   id="svg1"
   inkscape:version="1.4 (86a8ad7, 2024-10-11)"
   sodipodi:docname="meditativo.svg"
   xmlns:inkscape="http://www.inkscape.org/namespaces/inkscape"
   xmlns:sodipodi="http://sodipodi.sourceforge.net/DTD/sodipodi-0.dtd"
   xmlns="http://www.w3.org/2000/svg"
   xmlns:svg="http://www.w3.org/2000/svg">
  <sodipodi:namedview
     id="namedview1"
     pagecolor="#ffffff"
     bordercolor="#000000"
     borderopacity="0.25"
     inkscape:showpageshadow="2"
     inkscape:pageopacity="0.0"
     inkscape:pagecheckerboard="0"
     inkscape:deskcolor="#d1d1d1"
     inkscape:document-units="mm"
     inkscape:zoom="2.0888418"
     inkscape:cx="91.43823"
     inkscape:cy="97.422407"
     inkscape:current-layer="layer1" />
  <defs
     id="defs1" />
  <g
     inkscape:label="Livello 1"
     inkscape:groupmode="layer"
     id="layer1"
     transform="translate(-179.3875,-36.5125)">
    <circle
       style="fill:#5bbf99;stroke:#000000;stroke-width:1.69333;stroke-linejoin:bevel;fill-opacity:1"
       id="path162"
       cx="204.93385"
       cy="62.058857"
       r="24.699692" />
    <path
       d="m 198.96693,72.191431 c -0.93371,-0.42106 -2.05763,-1.51191 -1.8702,-1.81518 0.25324,-0.40974 1.08321,-0.36708 1.4497,0.0745 0.16817,0.20263 0.65187,0.51178 1.0749,0.687 0.68836,0.28513 0.86632,0.24448 1.69437,-0.38711 0.81216,-0.61947 1.075,-0.68325 2.15073,-0.52194 0.76532,0.11477 1.3419,0.37017 1.5355,0.68017 0.41781,0.66904 0.96432,0.6247 2.03479,-0.16507 1.14796,-0.84694 2.26053,-0.8398 3.52972,0.0226 l 1.00673,0.68409 1.03133,-0.71471 c 0.74761,-0.51809 1.21543,-0.66851 1.70053,-0.54676 0.92835,0.23301 0.84592,0.47042 -0.49854,1.43594 -1.51761,1.08986 -2.93102,1.14032 -4.11176,0.14679 l -0.82217,-0.69181 -0.99829,0.69181 c -1.22953,0.85207 -2.71571,0.91783 -3.67577,0.16265 -0.37,-0.29104 -0.90578,-0.52917 -1.19062,-0.52917 -0.28485,0 -0.82063,0.23813 -1.19063,0.52917 -0.70238,0.55249 -1.94633,0.66465 -2.85032,0.25699 z m -7.69889,-15.4428 c -0.28321,-0.73805 0.47328,-2.63428 1.4474,-3.62802 1.19232,-1.21635 1.98402,-1.53942 3.94993,-1.61183 1.29298,-0.0476 1.70062,0.0654 2.86103,0.79299 1.11418,0.69864 1.4813,1.13394 2.07832,2.46428 0.65592,1.46158 0.68585,1.65501 0.31371,2.02716 -0.54054,0.54054 -1.10527,0.0968 -1.33431,-1.04834 -0.27515,-1.37574 -1.30768,-2.47746 -2.6827,-2.86244 -1.06674,-0.29867 -1.42006,-0.28463 -2.6581,0.10563 -1.2028,0.37915 -1.53272,0.62904 -2.09326,1.58554 -0.36598,0.6245 -0.66542,1.38015 -0.66542,1.67921 0,0.29907 -0.18833,0.61603 -0.41852,0.70436 -0.58253,0.22354 -0.63781,0.2091 -0.79808,-0.20854 z m 18.60005,0.2019 c -0.47599,-0.47599 0.2974,-2.68065 1.36664,-3.89581 0.5593,-0.63562 2.0367,-1.36934 3.21032,-1.59435 2.51953,-0.48303 5.58019,1.54292 5.93826,3.93072 0.11984,0.79915 0.0845,1.366 -0.0964,1.54693 -0.37455,0.37456 -0.66845,0.0406 -1.0701,-1.21603 -0.71625,-2.24085 -2.42535,-3.26856 -4.87689,-2.93254 -1.03351,0.14166 -1.4096,0.36403 -2.27124,1.3429 -0.63727,0.72398 -1.06379,1.4939 -1.11405,2.01096 -0.0777,0.79924 -0.66106,1.23267 -1.08651,0.80722 z"
       style="display:inline;fill:#000000"
       id="path1"
       sodipodi:nodetypes="csscsscsccscsscssssccccccsccsssscccscsccssccc" />
  </g>
</svg>
