<?xml version="1.0" encoding="UTF-8" standalone="no"?>
<!-- Created with Inkscape (http://www.inkscape.org/) -->

<svg
   width="51.092712mm"
   height="51.092712mm"
   viewBox="0 0 51.092712 51.092712"
   version="1.1"
   id="svg1"
   inkscape:version="1.4 (86a8ad7, 2024-10-11)"
   sodipodi:docname="nervoso.svg"
   xmlns:inkscape="http://www.inkscape.org/namespaces/inkscape"
   xmlns:sodipodi="http://sodipodi.sourceforge.net/DTD/sodipodi-0.dtd"
   xmlns="http://www.w3.org/2000/svg"
   xmlns:svg="http://www.w3.org/2000/svg">
  <sodipodi:namedview
     id="namedview1"
     pagecolor="#ffffff"
     bordercolor="#000000"
     borderopacity="0.25"
     inkscape:showpageshadow="2"
     inkscape:pageopacity="0.0"
     inkscape:pagecheckerboard="0"
     inkscape:deskcolor="#d1d1d1"
     inkscape:document-units="mm"
     inkscape:zoom="2.0888418"
     inkscape:cx="-100.05545"
     inkscape:cy="174.01988"
     inkscape:current-layer="layer1" />
  <defs
     id="defs1" />
  <g
     inkscape:label="Livello 1"
     inkscape:groupmode="layer"
     id="layer1"
     transform="translate(-179.3875,-36.5125)">
    <circle
       style="fill:#f7a08c;stroke:#000000;stroke-width:1.69333;stroke-linejoin:bevel;fill-opacity:1"
       id="path162"
       cx="204.93385"
       cy="62.058857"
       r="24.699692" />
    <path
       d="m 196.7391,74.175726 c -0.8762,-1.6372 1.70277,-5.94183 4.25286,-7.09856 1.35484,-0.61456 4.36356,-0.74244 5.84155,-0.24829 2.51518,0.84091 4.45228,3.12302 4.96064,5.84415 0.44219,2.36696 -0.72423,2.46699 -1.25228,0.10739 -0.36077,-1.61209 -1.3911,-3.06607 -2.92901,-4.13336 -0.82498,-0.57253 -1.22592,-0.65193 -3.31956,-0.65742 -2.1272,-0.006 -2.47801,0.0643 -3.28817,0.65521 -1.95106,1.42299 -3.19412,3.43819 -3.19412,5.1782 0,0.79443 -0.7104,1.02816 -1.07191,0.35268 z m 17.72208,-11.70237 c -1.17093,-0.38526 -2.36885,-1.1567 -2.89184,-1.86229 -0.58221,-0.78551 -1.29905,-2.82714 -1.31322,-3.74018 -0.0515,-3.318073 3.44367,-6.347663 6.70083,-5.808303 1.33735,0.22146 1.93117,0.52776 3.19315,1.64707 2.91871,2.58873 2.22349,7.588963 -1.30471,9.383913 -1.10703,0.56319 -3.25998,0.74969 -4.38421,0.37979 z m 3.90413,-6.57463 c 0.76972,-0.723113 0.78266,-1.626703 0.0333,-2.324833 -1.15811,-1.07894 -2.86053,-0.37259 -2.86053,1.18687 0,0.71257 0.15319,0.985703 0.72761,1.297323 0.99655,0.54064 1.38595,0.51109 2.09961,-0.15936 z m -27.50173,6.43096 c -1.14374,-0.26196 -2.9862,-1.90218 -3.60562,-3.20984 -0.56897,-1.20116 -0.77087,-3.542273 -0.32904,-3.815343 0.12673,-0.0783 0.29807,-0.4723 0.38076,-0.87551 0.25309,-1.234 2.00051,-2.91131 3.3591,-3.22433 2.57885,-0.59417 4.14744,-0.24799 5.91718,1.30586 1.22977,1.07975 1.77495,2.3534 1.80981,4.228073 0.0735,3.95217 -3.4072,6.53586 -7.53219,5.59109 z m 4.56618,-7.876863 c 0,-0.95997 -0.55022,-1.4184 -1.7024,-1.4184 -1.41831,0 -2.27319,1.82025 -1.27416,2.712993 1.22602,1.09559 2.97656,0.33423 2.97656,-1.294593 z"
       style="display:inline;fill:#000000"
       id="path1"
       sodipodi:nodetypes="cscsssccscscsscssssscssssccsscssscs" />
  </g>
</svg>
