<?xml version="1.0" encoding="UTF-8" standalone="no"?>
<!-- Created with Inkscape (http://www.inkscape.org/) -->

<svg
   width="51.092712mm"
   height="51.092712mm"
   viewBox="0 0 51.092712 51.092712"
   version="1.1"
   id="svg1"
   inkscape:version="1.4 (86a8ad7, 2024-10-11)"
   sodipodi:docname="pessimista.svg"
   xmlns:inkscape="http://www.inkscape.org/namespaces/inkscape"
   xmlns:sodipodi="http://sodipodi.sourceforge.net/DTD/sodipodi-0.dtd"
   xmlns="http://www.w3.org/2000/svg"
   xmlns:svg="http://www.w3.org/2000/svg">
  <sodipodi:namedview
     id="namedview1"
     pagecolor="#ffffff"
     bordercolor="#000000"
     borderopacity="0.25"
     inkscape:showpageshadow="2"
     inkscape:pageopacity="0.0"
     inkscape:pagecheckerboard="0"
     inkscape:deskcolor="#d1d1d1"
     inkscape:document-units="mm"
     inkscape:zoom="2.0888418"
     inkscape:cx="91.43823"
     inkscape:cy="97.422407"
     inkscape:current-layer="layer1" />
  <defs
     id="defs1" />
  <g
     inkscape:label="Livello 1"
     inkscape:groupmode="layer"
     id="layer1"
     transform="translate(-179.3875,-36.5125)">
    <circle
       style="fill:#92b1df;stroke:#000000;stroke-width:1.69333;stroke-linejoin:bevel;fill-opacity:1"
       id="path162"
       cx="204.93385"
       cy="62.058857"
       r="24.699692" />
    <path
       d="m 198.61179,66.318041 c 0,-0.33885 0.73495,-0.39687 5.02708,-0.39687 4.29213,0 5.02709,0.058 5.02709,0.39687 0,0.33885 -0.73496,0.39688 -5.02709,0.39688 -4.29213,0 -5.02708,-0.058 -5.02708,-0.39688 z m -4.63021,-7.50641 c -0.43656,-0.27114 -1.07874,-0.80259 -1.42707,-1.18101 -0.83468,-0.90676 -1.05513,-2.92635 -0.44767,-4.10105 l 0.43312,-0.83757 h 3.314 3.314 l 0.41061,0.98273 c 1.07518,2.57328 -0.98896,5.63363 -3.79791,5.63086 -0.55293,-5.4e-4 -1.36252,-0.22282 -1.79908,-0.49396 z m 3.585,-3.35731 c 0.2449,-0.29509 0.27116,-0.61552 0.0922,-1.12448 -0.34358,-0.97696 -1.65959,-1.01241 -2.13565,-0.0575 -0.27184,0.54526 -0.25529,0.73261 0.0993,1.12447 0.52533,0.58048 1.48652,0.60892 1.94414,0.0575 z m 12.81917,3.35731 c -1.68901,-1.04901 -2.08446,-1.73942 -2.06688,-3.60855 0.0233,-2.47432 0.0806,-2.51108 3.91896,-2.51108 3.88269,0 3.97808,0.0618 3.94946,2.55703 -0.017,1.48392 -0.11042,1.77768 -0.79375,2.49643 -1.5332,1.61269 -3.46546,2.02407 -5.00779,1.06617 z m 3.75389,-3.64027 c 0.25796,-0.67224 -0.37297,-1.68561 -1.04947,-1.68561 -1.26699,0 -1.72267,1.49046 -0.67914,2.22137 0.62863,0.44031 1.45198,0.18513 1.72861,-0.53576 z m -18.90129,-4.80043 c -3.87779,-0.0579 -4.82864,-0.14352 -4.82864,-0.43472 0,-0.60094 0.64477,-0.68379 5.32161,-0.68379 3.8277,0 4.50788,0.0607 4.6437,0.41466 0.0875,0.22806 0.054,0.49595 -0.0744,0.59531 -0.12847,0.0994 -2.40646,0.1482 -5.06222,0.10854 z m 11.19718,-0.29478 c -0.41427,-0.6703 0.72263,-0.83401 5.30436,-0.76382 4.25564,0.0652 4.7333,0.11833 4.81342,0.5354 0.0822,0.42786 -0.29312,0.46302 -4.94192,0.46302 -2.76698,0 -5.09612,-0.10557 -5.17586,-0.2346 z"
       style="display:inline;fill:#000000"
       id="path1"
       sodipodi:nodetypes="sssssscscccsssccccccccscccsssssssccsscsssc" />
  </g>
</svg>
