<?xml version="1.0" encoding="UTF-8" standalone="no"?>
<!-- Created with Inkscape (http://www.inkscape.org/) -->

<svg
   width="51.092712mm"
   height="51.092712mm"
   viewBox="0 0 51.092712 51.092712"
   version="1.1"
   id="svg1"
   inkscape:version="1.4 (86a8ad7, 2024-10-11)"
   sodipodi:docname="positivo.svg"
   xmlns:inkscape="http://www.inkscape.org/namespaces/inkscape"
   xmlns:sodipodi="http://sodipodi.sourceforge.net/DTD/sodipodi-0.dtd"
   xmlns="http://www.w3.org/2000/svg"
   xmlns:svg="http://www.w3.org/2000/svg">
  <sodipodi:namedview
     id="namedview1"
     pagecolor="#ffffff"
     bordercolor="#000000"
     borderopacity="0.25"
     inkscape:showpageshadow="2"
     inkscape:pageopacity="0.0"
     inkscape:pagecheckerboard="0"
     inkscape:deskcolor="#d1d1d1"
     inkscape:document-units="mm"
     inkscape:zoom="2.0888418"
     inkscape:cx="91.43823"
     inkscape:cy="97.422407"
     inkscape:current-layer="layer1" />
  <defs
     id="defs1" />
  <g
     inkscape:label="Livello 1"
     inkscape:groupmode="layer"
     id="layer1"
     transform="translate(-179.3875,-36.5125)">
    <circle
       style="fill:#fdd575;stroke:#000000;stroke-width:1.69333;stroke-linejoin:bevel;fill-opacity:1"
       id="path162"
       cx="204.93385"
       cy="62.058857"
       r="24.699692" />
    <path
       d="m 204.59789,77.020041 c -2.62617,-0.39047 -5.49661,-4.38201 -4.02784,-5.60098 0.25307,-0.21003 1.92638,-0.28076 5.46153,-0.23084 5.73063,0.0809 5.77689,0.0975 5.43363,1.94701 -0.13812,0.74417 -0.53988,1.37167 -1.42844,2.231 -1.64519,1.59109 -3.02956,2.01204 -5.43888,1.65381 z m -14.09876,-13.32278 c -0.53818,-0.53819 -0.0465,-1.27098 1.16261,-1.73274 0.65465,-0.25002 1.3267,-0.58249 1.49343,-0.73882 0.16673,-0.15634 1.13659,-0.68257 2.15523,-1.1694 2.78941,-1.33311 3.175,-1.56614 3.175,-1.9188 0,-0.30645 -6.28926,-3.64839 -6.9043,-3.66875 -0.48818,-0.0162 -1.21729,-1.00013 -1.11983,-1.51127 0.0506,-0.26548 0.32895,-0.51553 0.6185,-0.55566 0.28956,-0.0401 2.84818,1.10092 5.68584,2.53565 6.62521,3.34975 6.57788,3.16171 1.45521,5.78207 -2.03729,1.04211 -3.84771,1.90532 -4.02315,1.91823 -0.17544,0.0129 -0.7576,0.32112 -1.29369,0.68492 -1.03736,0.70397 -1.93555,0.84387 -2.40485,0.37457 z m 27.30085,-0.92284 c -1.30968,-0.65665 -2.55984,-1.2984 -2.77812,-1.4261 -0.21828,-0.1277 -1.42889,-0.72567 -2.69023,-1.32882 -1.26135,-0.60315 -2.3545,-1.25596 -2.42923,-1.45069 -0.18711,-0.48759 0.38211,-1.19849 1.36346,-1.70285 4.82975,-2.48219 9.06403,-4.52347 9.38316,-4.52347 0.67925,0 1.0637,0.68601 0.73189,1.306 -0.16074,0.30034 -0.40057,0.54608 -0.53296,0.54608 -0.21341,0 -2.59418,1.14437 -6.43848,3.09479 -1.66505,0.84477 -1.53149,0.99294 2.84725,3.15872 3.92037,1.93907 4.65165,2.49274 4.12711,3.12477 -0.50921,0.61356 -0.9743,0.50995 -3.58385,-0.79843 z"
       style="fill:#000000"
       id="path1"
       sodipodi:nodetypes="sscscsccccsccccccscsssccsssssss" />
  </g>
</svg>
