<?xml version="1.0" encoding="UTF-8" standalone="no"?>
<!-- Created with Inkscape (http://www.inkscape.org/) -->

<svg
   width="51.092712mm"
   height="51.092712mm"
   viewBox="0 0 51.092712 51.092712"
   version="1.1"
   id="svg1"
   inkscape:version="1.4 (86a8ad7, 2024-10-11)"
   sodipodi:docname="sereno.svg"
   xmlns:inkscape="http://www.inkscape.org/namespaces/inkscape"
   xmlns:sodipodi="http://sodipodi.sourceforge.net/DTD/sodipodi-0.dtd"
   xmlns="http://www.w3.org/2000/svg"
   xmlns:svg="http://www.w3.org/2000/svg">
  <sodipodi:namedview
     id="namedview1"
     pagecolor="#ffffff"
     bordercolor="#000000"
     borderopacity="0.25"
     inkscape:showpageshadow="2"
     inkscape:pageopacity="0.0"
     inkscape:pagecheckerboard="0"
     inkscape:deskcolor="#d1d1d1"
     inkscape:document-units="mm"
     inkscape:zoom="2.0888418"
     inkscape:cx="91.43823"
     inkscape:cy="97.422407"
     inkscape:current-layer="layer1" />
  <defs
     id="defs1" />
  <g
     inkscape:label="Livello 1"
     inkscape:groupmode="layer"
     id="layer1"
     transform="translate(-179.3875,-36.5125)">
    <circle
       style="fill:#16ab69;stroke:#000000;stroke-width:1.69333;stroke-linejoin:bevel;fill-opacity:1"
       id="path162"
       cx="204.93385"
       cy="62.058857"
       r="24.699692" />
    <path
       d="m 207.18289,69.771663 c -2.4741,-0.58192 -4.43207,-2.60799 -4.78321,-4.94956 -0.23313,-1.55466 0.13827,-2.84067 0.85024,-2.94398 0.50101,-0.0727 0.56001,0.0888 0.69772,1.90958 0.17,2.24785 0.48528,2.84059 2.08094,3.91225 0.78903,0.52992 1.43062,0.73987 2.26095,0.73987 2.01435,0 3.13821,-0.73953 4.86645,-3.20223 0.27319,-0.38929 0.56953,-0.5354 0.8599,-0.42397 1.21234,0.46521 -0.36501,3.22837 -2.43248,4.26116 -1.37457,0.68666 -3.20892,0.97715 -4.40051,0.69688 z m 8.71099,-7.38958 c -1.21706,-0.55277 -2.13758,-1.87821 -2.38679,-3.43669 -0.12253,-0.76625 -0.005,-1.3057 0.50248,-2.30163 0.81081,-1.59197 1.85221,-2.24208 3.84306,-2.3991 1.22951,-0.097 1.69159,-0.007 2.55403,0.49534 1.52519,0.88899 2.30219,2.35964 2.17661,4.11965 -0.12189,1.70818 -0.74092,2.6274 -2.30891,3.42861 -1.41114,0.72105 -2.92792,0.75354 -4.38048,0.0938 z m 4.46397,-4.2862 c 0.38113,-0.60838 0.0131,-1.76228 -0.62683,-1.9654 -0.61802,-0.19615 -1.56792,0.50109 -1.56792,1.15087 0,1.13463 1.61802,1.73511 2.19475,0.81453 z m -18.13559,-0.44541 c -2.02799,-1.16214 -2.7638,-3.33423 -1.83828,-5.42651 0.67364,-1.52287 2.21771,-2.6016 3.96114,-2.76734 1.08484,-0.10314 1.42509,-0.002 2.57159,0.76707 2.09928,1.40754 2.71659,3.28235 1.81921,5.52511 -0.32892,0.82205 -0.75297,1.26249 -1.78593,1.85495 -1.74096,0.99854 -3.04429,1.01141 -4.72773,0.0467 z m 4.51084,-4.08023 c 0.43395,-0.43396 0.39961,-1.40164 -0.0634,-1.78589 -0.20948,-0.17385 -0.7155,-0.27773 -1.12448,-0.23083 -1.35612,0.15549 -1.08151,2.33422 0.29421,2.33422 0.31688,0 0.71902,-0.14288 0.89365,-0.3175 z"
       style="display:inline;fill:#000000;fill-opacity:1"
       id="path1"
       sodipodi:nodetypes="ssscssscsscscccscccccsccsccsscccscscc" />
  </g>
</svg>
