<?xml version="1.0" encoding="UTF-8" standalone="no"?>
<!-- Created with Inkscape (http://www.inkscape.org/) -->

<svg
   width="51.092712mm"
   height="51.092712mm"
   viewBox="0 0 51.092712 51.092712"
   version="1.1"
   id="svg1"
   inkscape:version="1.4 (86a8ad7, 2024-10-11)"
   sodipodi:docname="stressato.svg"
   xmlns:inkscape="http://www.inkscape.org/namespaces/inkscape"
   xmlns:sodipodi="http://sodipodi.sourceforge.net/DTD/sodipodi-0.dtd"
   xmlns="http://www.w3.org/2000/svg"
   xmlns:svg="http://www.w3.org/2000/svg">
  <sodipodi:namedview
     id="namedview1"
     pagecolor="#ffffff"
     bordercolor="#000000"
     borderopacity="0.25"
     inkscape:showpageshadow="2"
     inkscape:pageopacity="0.0"
     inkscape:pagecheckerboard="0"
     inkscape:deskcolor="#d1d1d1"
     inkscape:document-units="mm"
     inkscape:zoom="2.0888418"
     inkscape:cx="-100.05545"
     inkscape:cy="174.01988"
     inkscape:current-layer="layer1" />
  <defs
     id="defs1" />
  <g
     inkscape:label="Livello 1"
     inkscape:groupmode="layer"
     id="layer1"
     transform="translate(-179.3875,-36.5125)">
    <circle
       style="fill:#f48c8d;stroke:#000000;stroke-width:1.69333;stroke-linejoin:bevel;fill-opacity:1"
       id="path162"
       cx="204.93385"
       cy="62.058857"
       r="24.699692" />
    <path
       d="m 204.15705,36.279173 c 25.27368,-1.655909 -25.10922,1.645141 0,0 z m -3.6129,35.222839 c -0.0888,-0.231513 -0.0475,-0.534965 0.0919,-0.674339 0.14748,-0.147481 2.12525,-0.222995 4.73148,-0.180652 4.27744,0.06949 4.47808,0.09646 4.47808,0.601919 0,0.505947 -0.20053,0.532345 -4.56996,0.601586 -3.9774,0.06303 -4.5909,0.01784 -4.73148,-0.348514 z m -5.58379,-11.231851 c -1.39477,-0.850404 -1.91368,-1.965529 -1.91482,-4.11492 -9.7e-4,-1.824986 0.0213,-1.886299 1.04996,-2.890759 0.85694,-0.83678 1.30845,-1.059259 2.44581,-1.205169 0.76717,-0.09842 1.75804,-0.07866 2.20193,0.0439 1.21609,0.335777 2.38919,1.738407 2.78523,3.330163 0.36201,1.455038 0.3915,1.311109 -0.75044,3.663465 -0.77297,1.592301 -4.04736,2.252687 -5.81767,1.17332 z m 4.25294,-5.054032 c 0.20793,-0.795105 -0.048,-1.278453 -0.77338,-1.460507 -1.02115,-0.256292 -1.42662,0.0509 -1.42662,1.080847 0,0.909004 0.0279,0.934346 1.02748,0.934346 0.82071,0 1.05666,-0.11162 1.17252,-0.554686 z m 11.82292,5.390864 c -1.71732,-0.645296 -2.64584,-2.200613 -2.64584,-4.431917 0,-1.113402 0.15304,-1.594453 0.78457,-2.466257 0.86781,-1.197978 1.94223,-1.638195 4.00438,-1.640695 1.59121,-0.0019 3.15576,1.086365 3.77049,2.622744 0.53905,1.347199 0.54904,2.082179 0.0439,3.230448 -0.53416,1.214295 -0.91379,1.654769 -1.99345,2.312935 -0.89721,0.546947 -2.97941,0.742736 -3.96407,0.372742 z m 3.65139,-5.652575 c 0.0998,-0.858208 -0.4865,-1.364016 -1.45258,-1.253242 -0.54306,0.06227 -0.76692,0.24974 -0.83006,0.69514 -0.12538,0.884434 0.43137,1.415103 1.38684,1.321864 0.65557,-0.06397 0.83194,-0.214348 0.8958,-0.763762 z"
       style="display:inline;fill:#000000"
       id="path1"
       sodipodi:nodetypes="ssccsssccssssccssccssccsscccscccsssc" />
  </g>
</svg>
