<?xml version="1.0" encoding="UTF-8" standalone="no"?>
<!-- Created with Inkscape (http://www.inkscape.org/) -->

<svg
   width="51.092712mm"
   height="51.092712mm"
   viewBox="0 0 51.092712 51.092712"
   version="1.1"
   id="svg1"
   xmlns="http://www.w3.org/2000/svg"
   xmlns:svg="http://www.w3.org/2000/svg">
  <defs
     id="defs1" />
  <g
     id="layer1"
     transform="translate(-179.3875,-36.5125)">
    <circle
       style="fill:#f8b686;stroke:#000000;stroke-width:1.69333;stroke-linejoin:bevel;fill-opacity:1"
       id="path162"
       cx="204.93385"
       cy="62.058857"
       r="24.699692" />
    <path
       d="m 199.65095,72.51268 c 0,-0.35167 0.18834,-0.71167 0.41852,-0.8 0.64352,-0.24694 8.13329,-0.18238 8.5372,0.0736 0.19622,0.12435 0.31376,0.44994 0.2612,0.72355 -0.0885,0.46054 -0.43407,0.50283 -4.65624,0.56985 l -4.56068,0.0724 z m -5.17337,-13.07671 c -1.15647,-0.55198 -2.72775,-1.29446 -3.49173,-1.64996 -1.07632,-0.50083 -1.38906,-0.78122 -1.38906,-1.24535 0,-1.00572 1.1653,-0.73841 4.95691,1.13706 2.69925,1.33514 3.50975,1.8545 3.50975,2.24896 0,0.80932 -1.2087,0.64392 -3.58587,-0.49071 z m 17.38697,0.46799 c 0.0943,-0.64446 1.9504,-1.73453 5.51349,-3.23809 2.15925,-0.91117 2.91041,-0.94269 2.91041,-0.12215 0,0.50979 -0.49675,0.83808 -3.24114,2.14202 -1.78263,0.84697 -3.69815,1.60516 -4.25671,1.68487 -0.94384,0.13468 -1.00925,0.10172 -0.92605,-0.46665 z"
       style="display:inline;fill:#000000"
       id="path1-88" />
  </g>
</svg>
